<svg xmlns="http://www.w3.org/2000/svg" viewBox="0 0 24 24"><g data-name="Bank Card"><path d="M21.86,4h-20a.5.5,0,0,0-.5.5v15a.5.5,0,0,0,.5.5h20a.5.5,0,0,0,.5-.5V4.5A.5.5,0,0,0,21.86,4Zm-.5,15h-19V10h19Zm0-10h-19V7.52h19Zm0-2.44h-19V5h19Z"/><path d="M18.6 16a.44.44 0 0 1 .44.44.46.46 0 0 1-.76.31.42.42 0 0 1-.09-.14.5.5 0 1 0-.92.4 1.51 1.51 0 0 0 .31.45 1.36 1.36 0 0 0 .52.33V18a.5.5 0 0 0 .5.5.5.5 0 0 0 .5-.5v-.23A1.46 1.46 0 0 0 20 16.41 1.44 1.44 0 0 0 18.6 15a.45.45 0 0 1-.45-.44.47.47 0 0 1 .76-.32.38.38 0 0 1 .09.15.5.5 0 1 0 .92-.4 1.37 1.37 0 0 0-.3-.45 1.44 1.44 0 0 0-.52-.33v-.24a.51.51 0 0 0-.5-.5.5.5 0 0 0-.5.5v.24A1.44 1.44 0 0 0 18.6 16zM5 18.24h6a1.7 1.7 0 0 0 0-3.4H5a1.7 1.7 0 0 0 0 3.4zm6-2.4a.7.7 0 0 1 0 1.4H9.87a1.61 1.61 0 0 0 0-1.4zm-6 0H8.33a.7.7 0 0 1 0 1.4H5a.7.7 0 0 1 0-1.4z"/></g></svg>