<svg xmlns="http://www.w3.org/2000/svg" data-name="Layer 1" viewBox="0 0 64 64"><path d="M59.84375,2.023h-13a2.0023,2.0023,0,0,0-2,2v12H42.65949a2.99383,2.99383,0,1,0,0,2h2.18426v2a2.00229,2.00229,0,0,0,2,2h13a2.00229,2.00229,0,0,0,2-2v-16A2.0023,2.0023,0,0,0,59.84375,2.023Zm-20,16a1.00019,1.00019,0,0,1,.00006-2A1.00019,1.00019,0,0,1,39.84375,18.023Zm7,2v-16h13l.001,16Z"/><path d="M56.84375 7.023h-7a1.00019 1.00019 0 0 0 .00006 2h6.99994A1.00019 1.00019 0 0 0 56.84375 7.023zM54.84375 11.023h-5a1.00019 1.00019 0 0 0 .00006 2h4.99994A1.00019 1.00019 0 0 0 54.84375 11.023zM54.84375 15.023h-5a1.00019 1.00019 0 0 0 .00006 2h4.99994A1.00019 1.00019 0 0 0 54.84375 15.023zM59.84375 26.023h-13a2.0023 2.0023 0 0 0-2 2v4H42.65949a2.99383 2.99383 0 1 0 0 2h2.18426v10a2.00229 2.00229 0 0 0 2 2h13a2.00229 2.00229 0 0 0 2-2v-16A2.0023 2.0023 0 0 0 59.84375 26.023zm-20 8a1.00019 1.00019 0 0 1 .00006-2A1.00019 1.00019 0 0 1 39.84375 34.023zm7 10v-16h13l.001 16z"/><path d="M56.84375 31.023h-7a1.00019 1.00019 0 0 0 .00006 2h6.99994A1.00019 1.00019 0 0 0 56.84375 31.023zM54.84375 35.023h-5a1.00019 1.00019 0 0 0 .00006 2h4.99994A1.00019 1.00019 0 0 0 54.84375 35.023zM54.84375 39.023h-5a1.00019 1.00019 0 0 0 .00006 2h4.99994A1.00019 1.00019 0 0 0 54.84375 39.023z"/><path d="M26.9541,61.838a1.993,1.993,0,0,0,1.2041.08251l25.77442-6.22167a1.99807,1.99807,0,0,0,.3916-3.74854,41.666,41.666,0,0,1-13.9541-10.58057c-.8407-.97467-1.65351-2.031-2.47693-3.20153A9.33488,9.33488,0,0,0,30.60156,29.767V27.66161a6.40631,6.40631,0,0,0,3.873-6.16009,3.36914,3.36914,0,0,0,1.09753-5.92206,17.37256,17.37256,0,0,0-.00769-4.20148,5.458,5.458,0,0,0-4.52636-4.15429C30.457,7.169,28.91309,7.023,27.34375,7.023s-3.11328.146-3.71094.20215a5.45672,5.45672,0,0,0-4.51269,4.1753,17.30418,17.30418,0,0,0-.00482,4.17907,3.36913,3.36913,0,0,0,1.09759,5.922,6.40636,6.40636,0,0,0,3.873,6.16009v1.20972C17.29387,30.56727,10.45972,32.271,3.67285,33.97418a1.9955,1.9955,0,0,0-1.39062,2.63427C6.31891,48.36427,17.2803,58.3046,26.9541,61.838ZM35.94043,39.1275v1.71923A35.20845,35.20845,0,0,1,27.33594,42.023a29.70778,29.70778,0,0,1-8.58887-1.17334V39.1275a7.36205,7.36205,0,0,1,5.918-7.4281,4.79678,4.79678,0,0,0,5.34918-.0011A7.3609,7.3609,0,0,1,35.94043,39.1275ZM33.50885,16.119c.00079.032.013.06165.01685.09326l-.056-.0003A.39477.39477,0,0,1,33.50885,16.119ZM21.10156,11.67193C21.94615,8.9054,24.40779,9.102,27.34372,9.023c1.47562,0,2.9512.13914,3.49026.19041a3.4968,3.4968,0,0,1,2.749,2.436,15.34626,15.34626,0,0,1,.05469,3.30078c-.59791-1.5566-2.01646-2.51873-3.32132-1.10881a3.81,3.81,0,0,1-2.97263,1.15471,3.80984,3.80984,0,0,1-2.97266-1.15479c-1.29916-1.41-2.72844-.44548-3.32128,1.10889A15.247,15.247,0,0,1,21.10156,11.67193Zm.0774,4.44525a.40545.40545,0,0,1,.03881.09479L21.16,16.222A.977.977,0,0,0,21.179,16.11718Zm1.03393,5.72516V20.64556a.99974.99974,0,0,0-1-1A1.38274,1.38274,0,0,1,19.941,17.60027a1.59284,1.59284,0,0,0,2.3012-.53529c.31983-.56359.535-1.13463.834-1.69725,1.9094,2.15331,6.63465,2.1459,8.53516,0,.29861.56193.51451,1.13383.833,1.69629a1.59543,1.59543,0,0,0,2.30218.53625,1.38275,1.38275,0,0,1-1.27193,2.04527.99977.99977,0,0,0-1,1v1.19678a4.45477,4.45477,0,0,1-4.52148,4.374H26.73438A4.45477,4.45477,0,0,1,22.21289,21.84234Zm6.38867,6.374v2.001a2.772,2.772,0,0,1-2.51562-.00049V28.21636Zm-8.84051,3.79657a9.56751,9.56751,0,0,0-2.04773,2.82648l-6.97113,1.7334a1.00222,1.00222,0,0,0,.24029,1.9702.98376.98376,0,0,0,.24213-.02977l5.739-1.427a10.02412,10.02412,0,0,0-.19732,1.62L13.5625,39.503a1.00221,1.00221,0,0,0,.24029,1.97021c-.03436.06993,2.87375-.6965,2.94428-.70177.01466.44368-.102,1.18765.285,1.5108l-.64825.16022a1,1,0,1,0,.48047,1.9414l3.96264-.97937a31.69873,31.69873,0,0,0,6.52857.61853,36.72124,36.72124,0,0,0,9.876-1.4663,1.00369,1.00369,0,0,0,.709-1.00312A43.25526,43.25526,0,0,0,53.46387,53.75445L27.69531,59.98c-9.2132-3.35492-19.7077-12.88-23.53613-24.06641Q11.95792,33.95742,19.76105,32.01293Z"/></svg>