<svg xmlns="http://www.w3.org/2000/svg" viewBox="0 0 64 64"><path d="M30.058 45.156h10.9a1 1 0 0 0 0-2h-10.9a1 1 0 0 0 0 2zM39.084 46.733H31.931a1 1 0 0 0 0 2h7.153a1 1 0 0 0 0-2zM14.073 17.071h6.643a1 1 0 0 0 0-2H14.073a1 1 0 0 0 0 2zM23.68 16.071a1 1 0 0 0 1 1h17.8a1 1 0 0 0 0-2H24.68A1 1 0 0 0 23.68 16.071zM14.073 20.647h6.643a1 1 0 0 0 0-2H14.073a1 1 0 0 0 0 2zM42.483 18.647H24.68a1 1 0 0 0 0 2h17.8a1 1 0 0 0 0-2zM24.345 11.47h8.41a1 1 0 0 0 0-2h-8.41a1 1 0 0 0 0 2z"/><path d="M60.834,19.07a3.288,3.288,0,0,0-5.8-2.136L53,19.333l.8-8.074a1,1,0,0,0-.895-1.094l-5.99-.6V5.26a1,1,0,0,0-1-1H10.354a1,1,0,0,0-1,1V53.07a1,1,0,0,0,1,1h1.458l-.1,1.053a1,1,0,0,0,.9,1.092l35.37,3.52a.831.831,0,0,0,.1.005,1,1,0,0,0,1-.9l2.779-27.957,1.371-1.618c.017.017.025.039.043.054a1,1,0,0,0,1.41-.116l3.911-4.619a1,1,0,0,0-.117-1.409.655.655,0,0,0-.058-.032l1.645-1.94A3.266,3.266,0,0,0,60.834,19.07Zm-6.069,5.276-4.637,5.472-.007.006L47.01,33.5,43.1,38.109l-.036.042-1.973-1.669,1.18-1.393L51.71,23.946l.737-.869v0l.343-.4.159.135ZM34.507,25.87v2.976H21.233V25.87Zm6.977,0v2.976H36.507V25.87ZM19.233,28.846H14.794V25.87h4.439Zm-4.439,2h4.439V37.02H14.794Zm6.439,0H34.507V37.02H21.233Zm15.274,0h4.977v2.078l-2.564,3.03-.008.013a1.058,1.058,0,0,0-.1.157.785.785,0,0,0-.044.073c-.01.021-.013.045-.021.067a.8.8,0,0,0-.023.084.859.859,0,0,0-.032.113l-.079.559H36.507Zm3.915,7.688.734.62-.86.273ZM51.71,12.056l-.99,9.965-1.366,1.612-2.44,2.88V11.575ZM11.354,6.26h33.56V28.874l-1.43,1.688V24.87a1,1,0,0,0-1-1H13.794a1,1,0,0,0-1,1v4.959c0,.006,0,.011,0,.017s0,.011,0,.017V38.02a1,1,0,0,0,1,1H38.333l-.183,1.3a1.566,1.566,0,0,1-1.793-.282c-2.2-1.582-4.387.18-5.232,1.332a1,1,0,0,0,1.612,1.184c.052-.071,1.286-1.728,2.454-.891a3.463,3.463,0,0,0,4.395.083l3.9-1.237c.026-.008.047-.024.072-.034a.727.727,0,0,0,.075-.035c.033-.017.069-.029.1-.049s.036-.033.055-.047a1.057,1.057,0,0,0,.15-.133l.009-.008.967-1.141v13H11.354ZM47.178,57.646,13.8,54.324l.025-.254H45.914a1,1,0,0,0,1-1V36.707l2.011-2.375.646-.763ZM58.532,19.9,56.059,22.82l-.811-.687-1.165-.989,2.475-2.918a1.277,1.277,0,0,1,.878-.455,1.3,1.3,0,0,1,1.1,2.132Z"/></svg>