<svg xmlns="http://www.w3.org/2000/svg" width="32" height="32" viewBox="0 0 32 32"><path style="line-height:normal;text-indent:0;text-align:start;text-decoration-line:none;text-decoration-style:solid;text-decoration-color:#000;text-transform:none;block-progression:tb;white-space:normal;isolation:auto;mix-blend-mode:normal;solid-color:#000;solid-opacity:1" fill-rule="evenodd" d="M 16.164062 3 A 0.50005 0.50005 0 0 0 16.160156 3.0019531 A 0.50005 0.50005 0 0 0 16.150391 3.0019531 A 0.50005 0.50005 0 0 0 15.980469 3.0449219 L 4.421875 7.9882812 A 0.50005 0.50005 0 0 0 4 8.4882812 L 4 23.490234 A 0.50005 0.50005 0 0 0 4.0429688 23.697266 A 0.50005 0.50005 0 0 0 4.0449219 23.703125 A 0.50005 0.50005 0 0 0 4.0585938 23.730469 A 0.50005 0.50005 0 0 0 4.3144531 23.96875 L 15.880859 28.914062 A 0.50005 0.50005 0 0 0 16.173828 29.007812 A 0.50005 0.50005 0 0 0 16.501953 28.910156 L 28.0625 23.96875 A 0.50005 0.50005 0 0 0 28.369141 23.574219 A 0.50005 0.50005 0 0 0 28.373047 23.546875 A 0.50005 0.50005 0 0 0 28.375 23.523438 A 0.50005 0.50005 0 0 0 28.375 23.498047 A 0.50005 0.50005 0 0 0 28.375 23.490234 L 28.375 8.4882812 A 0.50005 0.50005 0 0 0 27.960938 7.9902344 L 16.40625 3.0507812 A 0.50005 0.50005 0 0 0 16.394531 3.0449219 A 0.50005 0.50005 0 0 0 16.3125 3.0175781 A 0.50005 0.50005 0 0 0 16.298828 3.0136719 A 0.50005 0.50005 0 0 0 16.263672 3.0058594 A 0.50005 0.50005 0 0 0 16.25 3.0039062 A 0.50005 0.50005 0 0 0 16.212891 3.0019531 A 0.50005 0.50005 0 0 0 16.164062 3 z M 16.1875 4.0449219 L 18.636719 5.0917969 L 8.25 9.5351562 A 0.50009756 0.50009756 0 0 0 8.2207031 9.5488281 L 5.7675781 8.5 L 16.1875 4.0449219 z M 19.910156 5.6367188 L 22.882812 6.9082031 L 12.302734 11.433594 A 0.50009296 0.50009296 0 0 0 12.001953 11.943359 A 0.50005 0.50005 0 0 0 12 12.001953 L 12 17.351562 L 10.916016 15.724609 A 0.50005 0.50005 0 0 0 10.277344 15.554688 L 9 16.193359 L 9 10.302734 L 19.910156 5.6367188 z M 24.154297 7.4511719 L 26.607422 8.5 L 16.1875 12.955078 L 13.736328 11.908203 L 24.125 7.4648438 A 0.50005 0.50005 0 0 0 24.154297 7.4511719 z M 5 9.2578125 L 8 10.541016 L 8 17.001953 A 0.50005 0.50005 0 0 0 8.7226562 17.449219 L 10.328125 16.646484 L 12.056641 19.238281 A 0.50005 0.50005 0 0 0 12.058594 19.242188 A 0.50005 0.50005 0 0 0 12.310547 19.46875 A 0.50005 0.50005 0 0 0 12.3125 19.470703 A 0.50005 0.50005 0 0 0 12.357422 19.486328 A 0.50005 0.50005 0 0 0 12.449219 19.505859 A 0.50005 0.50005 0 0 0 12.507812 19.507812 A 0.50005 0.50005 0 0 0 12.566406 19.503906 A 0.50005 0.50005 0 0 0 12.607422 19.496094 A 0.50005 0.50005 0 0 0 12.636719 19.488281 A 0.50005 0.50005 0 0 0 12.662109 19.480469 A 0.50005 0.50005 0 0 0 12.744141 19.445312 A 0.50005 0.50005 0 0 0 12.746094 19.443359 A 0.50005 0.50005 0 0 0 13 18.941406 L 13 12.681641 L 15.6875 13.830078 L 15.6875 27.746094 L 5 23.173828 L 5 9.2578125 z M 27.375 9.2597656 L 27.375 23.173828 L 16.6875 27.746094 L 16.6875 13.830078 L 27.375 9.2597656 z " color="#000" enable-background="accumulate" font-family="sans-serif" font-weight="400" overflow="visible"/></svg>